# AST/ASF file generated using VICON BodyLanguage
# -----------------------------------------------
:version 1.10
:name VICON
:units
  mass 1.0
  length 0.45
  angle deg
:documentation
   .ast/.asf automatically generated from VICON data using
   VICON BodyBuilder and BodyLanguage model FoxedUp or BRILLIANT.MOD
:root
   order TX TY TZ RX RY RZ
   axis XYZ
   position 0 0 0  
   orientation 0 0 0 
:bonedata
  begin
     id 1 
     name lhipjoint
     direction 0.714689 -0.624256 0.315473 
     length 2.45343 
     axis 0 0 0  XYZ
  end
  begin
     id 2 
     name lfemur
     direction 0.34202 -0.939693 0  
     length 6.59069  
     axis 0 0 20  XYZ
    dof rx ry rz
    limits (-160.0 20.0)
           (-70.0 70.0)
           (-60.0 70.0)
  end
  begin
     id 3 
     name ltibia
     direction 0.34202 -0.939693 0   
     length 6.73476   
     axis 0 0 20   XYZ
    dof rx
    limits (-10.0 170.0)
  end
  begin
     id 4 
     name lfoot
     direction 0.0718085 -0.197292 0.977711   
     length 1.52607   
     axis -90 7.62852e-016 20   XYZ
    dof rx rz
    limits (-45.0 90.0)
           (-70.0 20.0)
  end
  begin
     id 5 
     name ltoes
     direction 1.53553e-011 -4.22024e-011 1   
     length 0.777832   
     axis -90 7.62852e-016 20   XYZ
    dof rx
    limits (-90.0 20.0)
  end
  begin
     id 6 
     name rhipjoint
     direction -0.727419 -0.612432 0.309497   
     length 2.50079  
     axis 0 0 0  XYZ 
  end
  begin
     id 7 
     name rfemur
     direction -0.34202 -0.939693 0   
     length 6.51665   
     axis 0 0 -20   XYZ
    dof rx ry rz
    limits (-160.0 20.0)
           (-70.0 70.0)
           (-70.0 60.0)
  end
  begin
     id 8 
     name rtibia
     direction -0.34202 -0.939693 0   
     length 6.48919   
     axis 0 0 -20   XYZ
    dof rx
    limits (-10.0 170.0)
 end
 begin
     id 9 
     name rfoot
     direction -0.112205 -0.308282 0.944655   
     length 1.68717  
     axis -90 -7.62852e-016 -20   XYZ
    dof rx rz
    limits (-45.0 90.0)
           (-20.0 70.0)
  end
  begin
     id 10 
     name rtoes
     direction -1.53583e-011 -4.21993e-011 1   
     length 0.846859   
     axis -90 -7.62852e-016 -20   XYZ
    dof rx
    limits (-90.0 20.0)
  end
  begin
     id 11 
     name lowerback
     direction -0.00119603 0.996364 -0.0851956   
     length 1.67242   
     axis 0 0 0   XYZ
    dof rx ry rz
    limits (-20.0 45.0)
           (-30.0 30.0)
           (-30.0 30.0)
  end
  begin
     id 12 
     name upperback
     direction -0.00531001 0.998318 0.0577248   
     length 1.64819   
     axis 0 0 0   XYZ
    dof rx ry rz
    limits (-20.0 45.0)
           (-30.0 30.0)
           (-30.0 30.0)
  end
  begin
     id 13 
     name thorax
     direction -0.00653676 0.995132 0.0983291   
     length 1.67429   
     axis 0 0 0   XYZ
    dof rx ry rz
    limits (-20.0 45.0)
           (-30.0 30.0)
           (-30.0 30.0)
  end
  begin
     id 14 
     name lowerneck
     direction 0.0141424 0.999886 0.00525412   
     length 1.59623   
     axis 0 0 0   XYZ
    dof rx ry rz
    limits (-20.0 45.0)
           (-30.0 30.0)
           (-30.0 30.0)
  end
  begin
     id 15 
     name upperneck
     direction -0.0640064 0.987178 -0.146232   
     length 1.59576   
     axis 0 0 0   XYZ
    dof rx ry rz
    limits (-20.0 45.0)
           (-30.0 30.0)
           (-30.0 30.0)
  end
  begin
     id 16
     name head
     direction -0.0222942 0.998496 -0.0500859  
     length 1.60959  
     axis 0 0 0   XYZ
    dof rx ry rz
    limits (-20.0 45.0)
           (-30.0 30.0)
           (-30.0 30.0)
  end
  begin
     id 17 
     name lclavicle
     direction 0.908549 0.392612 0.142806  
     length 2.80649  
     axis 0 0 0   XYZ
    dof ry rz
    limits (-20.0 10.0)
           (0.0 20.0)
  end
  begin
     id 18 
     name lhumerus
     direction 1 -4.48968e-011 1.08832e-028   
     length 4.2884   
     axis -180 -30 -90   XYZ
    dof rx ry rz
    limits (-60.0 90.0)
           (-90.0 90.0)
           (-90.0 90.0)
  end
  begin
     id 19
     name lradius
     direction 1 -4.48952e-011 -3.02642e-028   
     length 3.06552   
     axis -180 -30 -90   XYZ
    dof rx
    limits (-10.0 170.0)
  end
  begin
     id 20
     name lwrist
     direction 1 -4.49014e-011 1.58672e-027   
     length 1.53276   
     axis -1.65735e-015 90 90   XYZ
    dof ry
    limits (-180.0 0.0)
 end
  begin
     id 21 
     name lhand
     direction 1 -4.48928e-011 3.17344e-027   
     length 0.753045   
     axis -2.02492e-015 90 90   XYZ
    dof rx rz
    limits (-90.0 90.0)
           (-45.0 45.0)
  end
  begin
     id 22 
     name lfingers
     direction 1 -4.48958e-011 6.34687e-027   
     length 0.607124   
     axis -4.04985e-015 90 90   XYZ
    dof rx
    limits (0.0 90.0)
  end
  begin
     id 23
     name lthumb
     direction 0.707107 -6.34905e-011 0.707107   
     length 0.871712   
     axis -90 45 2.85299e-015   XYZ
    dof rx rz
    limits (-45.0 45.0)
           (-45.0 45.0)
  end
  begin
     id 24 
     name rclavicle
     direction -0.885098 0.45949 0.0739604   
     length 2.9478  
     axis 0 0 0   XYZ 
    dof ry rz
    limits (-10.0 20.0)
           (-20.0 0.0)
  end
  begin
     id 25 
     name rhumerus
     direction -1 -4.4898e-011 -2.61739e-027  
     length 4.52172   
     axis -180 30 90   XYZ
    dof rx ry rz
    limits (-90.0 60.0)
           (-90.0 90.0)
           (-90.0 90.0)
  end
  begin
     id 26 
     name rradius
     direction -1 -4.48945e-011 9.02552e-028   
     length 2.8914   
     axis -180 30 90   XYZ
    dof rx
    limits (-10.0 170.0)
  end
  begin
     id 27 
     name rwrist
     direction -1 -4.49018e-011 1.58672e-027   
     length 1.4457   
     axis -1.65735e-015 -90 -90   XYZ
    dof ry
    limits (-180.0 0.0)
  end
  begin
     id 28
     name rhand
     direction -1 -4.48825e-011 3.17344e-027   
     length 0.680541   
     axis -2.02492e-015 -90 -90   XYZ
    dof rx rz
    limits (-90.0 90.0)
           (-45.0 45.0)
  end
  begin
     id 29
     name rfingers
     direction -1 -4.49067e-011 6.34687e-027   
     length 0.54867   
     axis -4.04985e-015 -90 -90   XYZ
    dof rx
    limits (0.0 90.0)
  end
  begin
     id 30
     name rthumb
     direction -0.707107 -6.34833e-011 0.707107   
     length 0.787783   
     axis -90 -45 -2.85299e-015   XYZ
    dof rx rz
    limits (-45.0 45.0)
           (-45.0 45.0)
  end
:hierarchy
  begin
    root lhipjoint rhipjoint lowerback
    lhipjoint lfemur
    lfemur ltibia
    ltibia lfoot
    lfoot ltoes
    rhipjoint rfemur
    rfemur rtibia
    rtibia rfoot
    rfoot rtoes
    lowerback upperback
    upperback thorax
    thorax lowerneck lclavicle rclavicle
    lowerneck upperneck
    upperneck head
    lclavicle lhumerus
    lhumerus lradius
    lradius lwrist
    lwrist lhand lthumb
    lhand lfingers
    rclavicle rhumerus
    rhumerus rradius
    rradius rwrist
    rwrist rhand rthumb
    rhand rfingers
  end

#!OML:ASF E:\emotionWalksFemale\Project 1\Capture day 1\Session 1\Female1.ASF
:FULLY-SPECIFIED
:DEGREES
476
root 8.04795 14.9755 41.6803 -180.626 -1.1959 -178.833
lowerback 8.2633 2.13583 2.53534
upperback -4.52435 3.03648 -0.859369
thorax -9.27655 1.25245 -2.82111
lowerneck -6.3763 -3.24301 -8.01189
upperneck 15.168 -4.83681 5.80995
head 5.95961 -2.59085 2.79215
rclavicle 5.75979e-014 7.55382e-015
rhumerus -57.3653 30.117 -114.736
rradius 44.0965
rwrist -15.4261
rhand 3.72228 -65.8246
rfingers 7.12502
rthumb -150.849 273.562
lclavicle 5.75979e-014 7.55382e-015
lhumerus -46.6214 -0.0226868 81.9158
lradius 36.9301
lwrist -11.2443
lhand -1.71132 -34.7596
lfingers 7.12502
lthumb 23.9503 -6.23344
rfemur -8.73306 6.4299 20.4516
rtibia 33.4787
rfoot -24.1019 -20.1413
rtoes -8.57065
lfemur -9.99601 -11.2708 -25.1968
ltibia 34.8566
lfoot -28.7033 13.8639
ltoes -21.6636
477
root 8.04851 14.9732 41.6804 -180.652 -1.69418 -178.927
lowerback 8.23693 1.98079 2.39481
upperback -4.50325 2.81113 -0.851296
thorax -9.25884 1.1531 -2.69687
lowerneck -6.34925 -3.25901 -8.07717
upperneck 15.1596 -4.85465 5.82044
head 5.95554 -2.6029 2.80525
rclavicle -3.72721e-015 -9.14409e-015
rhumerus -57.3627 30.1076 -114.631
rradius 44.0646
rwrist -15.1662
rhand 3.7824 -65.9692
rfingers 7.12502
rthumb -150.792 273.697
lclavicle -3.72721e-015 -9.14409e-015
lhumerus -46.5668 0.105391 81.9816
lradius 36.8362
lwrist -11.1838
lhand -1.62555 -34.5019
lfingers 7.12502
lthumb 24.0325 -5.98653
rfemur -8.60982 6.12329 20.382
rtibia 33.4959
rfoot -24.1561 -20.315
rtoes -8.45964
lfemur -9.98821 -11.5386 -25.2828
ltibia 34.8365
lfoot -28.6003 13.8953
ltoes -23.4039
478
root 8.05062 14.972 41.6829 -180.608 -1.65569 -178.913
lowerback 8.28222 1.99768 2.42385
upperback -4.56351 2.83125 -0.911275
thorax -9.34615 1.15489 -2.78414
lowerneck -6.39789 -3.27101 -8.09097
upperneck 15.2889 -4.8973 5.92336
head 6.00999 -2.62097 2.83612
rclavicle 4.05521e-014 1.59028e-015
rhumerus -57.1763 29.8589 -114.504
rradius 43.9418
rwrist -14.31
rhand 4.7945 -66.5752
rfingers 7.12502
rthumb -149.826 274.131
lclavicle 4.05521e-014 1.59028e-015
lhumerus -46.6337 0.0134499 81.9585
lradius 36.8811
lwrist -10.9288
lhand -1.54869 -34.4624
lfingers 7.12502
lthumb 24.1062 -5.95679
rfemur -8.6866 6.10855 20.3917
rtibia 33.494
rfoot -24.0101 -20.2137
rtoes -7.87232
lfemur -10.0482 -11.4785 -25.2473
ltibia 34.8343
lfoot -28.5656 13.9631
ltoes -22.2458
479
root 8.04791 14.9711 41.6892 -180.553 -1.23971 -178.843
lowerback 8.37602 2.15327 2.45997
upperback -4.62244 3.0475 -0.896137
thorax -9.4518 1.25392 -2.82868
lowerneck -6.50992 -3.31244 -7.96353
upperneck 15.4315 -4.94433 5.7493
head 6.07081 -2.64939 2.75382
rclavicle -4.64659e-015 7.55382e-015
rhumerus -57.1935 29.8501 -114.591
rradius 43.8227
rwrist -14.4736
rhand 4.14199 -65.8863
rfingers 7.12502
rthumb -150.449 273.554
lclavicle -4.64659e-015 7.55382e-015
lhumerus -46.8208 -0.272577 82.1963
lradius 37.1097
lwrist -10.5078
lhand -1.87421 -34.3528
lfingers 7.12502
lthumb 23.794 -5.80622
rfemur -8.90471 6.32 20.4123
rtibia 33.5259
rfoot -23.8418 -19.9926
rtoes -7.85981
lfemur -10.14 -11.251 -25.1894
ltibia 34.8648
lfoot -28.6034 13.9529
ltoes -22.5186
480
root 8.05356 14.967 41.6865 -180.792 -1.68724 -178.823
lowerback 8.53194 2.01296 2.45866
upperback -4.52487 2.86543 -0.923575
thorax -9.4471 1.1684 -2.83338
lowerneck -6.49136 -3.34672 -7.75229
upperneck 15.4097 -4.98361 5.54645
head 6.05375 -2.67013 2.65137
rclavicle 1.06847e-014 -5.1684e-015
rhumerus -56.9827 29.7309 -114.45
rradius 43.7159
rwrist -13.8554
rhand 5.11299 -66.2566
rfingers 7.12502
rthumb -149.522 273.756
lclavicle 1.06847e-014 -5.1684e-015
lhumerus -46.8281 -0.442836 82.3113
lradius 37.074
lwrist -10.664
lhand -3.29293 -34.4158
lfingers 7.12502
lthumb 22.4328 -5.69853
rfemur -8.53175 6.20158 20.5425
rtibia 33.5514
rfoot -24.1627 -20.2937
rtoes -7.77128
lfemur -9.89399 -11.3871 -25.1638
ltibia 34.884
lfoot -28.5839 13.5008
ltoes -21.7961
481
root 8.04891 14.966 41.6909 -180.667 -1.52013 -178.873
lowerback 8.45743 2.05265 2.63319
upperback -4.54531 2.9226 -1.08304
thorax -9.4056 1.17903 -3.10743
lowerneck -6.4741 -3.37821 -7.63763
upperneck 15.34 -5.03926 5.5681
head 6.03018 -2.68767 2.63541
rclavicle -2.76808e-014 6.75868e-015
rhumerus -56.9664 29.8052 -114.738
rradius 43.6519
rwrist -14.2859
rhand 4.10722 -65.5487
rfingers 7.12502
rthumb -150.482 273.222
lclavicle -2.76808e-014 6.75868e-015
lhumerus -46.7302 -0.488626 82.1762
lradius 36.9231
lwrist -10.8847
lhand -4.38241 -34.5793
lfingers 7.12502
lthumb 21.3867 -5.73962
rfemur -8.78226 6.1055 20.4022
rtibia 33.615
rfoot -24.1003 -20.0545
rtoes -7.55414
lfemur -10.0493 -11.3764 -25.232
ltibia 34.8967
lfoot -28.5323 13.6172
ltoes -21.4264
482
root 8.05329 14.9642 41.687 -180.762 -1.56325 -178.889
lowerback 8.47805 2.03395 2.49511
upperback -4.51221 2.88487 -1.05022
thorax -9.39198 1.17215 -2.98896
lowerneck -6.39384 -3.38999 -7.70385
upperneck 15.2474 -5.04486 5.56614
head 5.98939 -2.69345 2.64672
rclavicle 1.88348e-014 3.57812e-015
rhumerus -56.9467 29.7562 -114.639
rradius 43.6447
rwrist -13.7415
rhand 4.44429 -65.6266
rfingers 7.12502
rthumb -150.16 273.243
lclavicle 1.88348e-014 3.57812e-015
lhumerus -46.865 -0.507409 82.2731
lradius 37.0234
lwrist -10.6759
lhand -4.51007 -34.5667
lfingers 7.12502
lthumb 21.2641 -5.71315
rfemur -8.65059 6.05936 20.4237
rtibia 33.6425
rfoot -24.0939 -20.0648
rtoes -7.40973
lfemur -9.90526 -11.4058 -25.2511
ltibia 34.8746
lfoot -28.5483 13.5448
ltoes -21.5356
483
root 8.04708 14.9673 41.6907 -180.548 -1.36891 -178.824
lowerback 8.36938 2.08582 2.56438
upperback -4.60193 2.95833 -1.02735
thorax -9.41927 1.2004 -3.01222
lowerneck -6.53928 -3.39515 -7.73429
upperneck 15.3667 -5.04475 5.56734
head 6.05295 -2.69404 2.64956
rclavicle -3.91109e-014 3.97569e-016
rhumerus -56.9379 29.7886 -114.573
rradius 43.5997
rwrist -13.3277
rhand 4.81052 -65.7027
rfingers 7.12502
rthumb -149.811 273.256
lclavicle -3.91109e-014 3.97569e-016
lhumerus -46.9831 -0.379746 82.3553
lradius 37.1104
lwrist -10.6857
lhand -4.62168 -34.7507
lfingers 7.12502
lthumb 21.1569 -5.8851
rfemur -8.98337 6.01962 20.4123
rtibia 33.6759
rfoot -24.0533 -19.8753
rtoes -8.05636
lfemur -10.1566 -11.2529 -25.1436
ltibia 34.8501
lfoot -28.6066 13.4631
ltoes -21.0494
484
root 8.0525 14.9659 41.6864 -180.766 -1.79551 -178.816
lowerback 8.48249 1.91389 2.47609
upperback -4.51069 2.72639 -0.995389
thorax -9.40696 1.0983 -2.89487
lowerneck -6.62435 -3.36916 -7.81378
upperneck 15.4028 -5.00621 5.64875
head 6.08019 -2.67249 2.69038
rclavicle 1.94312e-014 7.95139e-016
rhumerus -57.028 30.0007 -114.712
rradius 43.5723
rwrist -13.6511
rhand 4.62072 -65.4385
rfingers 7.12502
rthumb -149.992 273.024
lclavicle 1.94312e-014 7.95139e-016
lhumerus -46.9893 -0.15134 82.3624
lradius 37.0777
lwrist -10.8639
lhand -4.75088 -35.2362
lfingers 7.12502
lthumb 21.0328 -6.35675
rfemur -8.61031 5.94059 20.526
rtibia 33.6849
rfoot -24.4456 -20.1273
rtoes -8.04538
lfemur -9.90125 -11.2569 -25.1015
ltibia 34.8163
lfoot -28.6677 13.3087
ltoes -21.2947
